<svg id="Layer_1" data-name="Layer 1" xmlns="http://www.w3.org/2000/svg" xmlns:xlink="http://www.w3.org/1999/xlink" width="800" height="450" viewBox="0 0 800 450"><defs><style>.cls-1{fill:none;}.cls-2{fill:url(#linear-gradient);}.cls-3{fill:url(#linear-gradient-2);}.cls-4{fill:#29abe2;}</style><linearGradient id="linear-gradient" x1="6.13" y1="796.63" x2="8.98" y2="794.3" gradientTransform="matrix(60.08, 0, 0, -47.2, 101.92, 37853.2)" gradientUnits="userSpaceOnUse"><stop offset="0.21" stop-color="#f15a24"/><stop offset="0.68" stop-color="#fbb03b"/></linearGradient><linearGradient id="linear-gradient-2" x1="4.8" y1="793.63" x2="1.94" y2="795.96" gradientTransform="matrix(60.09, 0, 0, -47.23, 41.93, 37886.66)" gradientUnits="userSpaceOnUse"><stop offset="0.21" stop-color="#ed1e79"/><stop offset="0.89" stop-color="#522785"/></linearGradient></defs><title>dfinity_logo-freelogovectors.net_</title><g id="dfinity_logo" data-name="dfinity logo"><path id="Shape" d="M56.18,522.56H37.31A4.94,4.94,0,0,0,32,527.84v61.65a4.93,4.93,0,0,0,5.29,5.41H56.18c21.65,0,37-14.72,37-36.1S78.05,522.56,56.18,522.56Zm23,36.11A22.7,22.7,0,0,1,56,582.83H45.84V534.51H56a22.58,22.58,0,0,1,23.2,24.16Z" transform="translate(0 -175)"/><path id="Path" d="M198.1,522.56h-37a5,5,0,0,0-5.32,5.28v61.65a4.93,4.93,0,0,0,5.32,5.28h3.43a4.89,4.89,0,0,0,5.28-5.28V565.33H194a4.87,4.87,0,0,0,3.84-1.43,4.93,4.93,0,0,0,1.44-3.85v-1.12A4.95,4.95,0,0,0,194,553.6H169.57V534.77H198.1a5,5,0,0,0,5.28-5.33V528.1C203.17,524.64,201.31,522.56,198.1,522.56Z" transform="translate(0 -175)"/><path id="Path-2" data-name="Path" d="M285.25,522.56h-3.42a4.93,4.93,0,0,0-5.28,5.28v61.65a4.88,4.88,0,0,0,5.28,5.41h3.42a4.93,4.93,0,0,0,5.33-5.28V527.84a5,5,0,0,0-5.33-5.28Z" transform="translate(0 -175)"/><path id="Path-3" data-name="Path" d="M417.34,522.56h-3.46a4.93,4.93,0,0,0-5.28,5.28v41.09l-32.21-43.3a6.74,6.74,0,0,0-5.72-2.77h-1.38a5,5,0,0,0-5.33,5.33v61.52a5,5,0,0,0,5.33,5.32h3.42a5,5,0,0,0,5.32-5.32V548.32l32.17,43.73a6.75,6.75,0,0,0,5.76,2.72h1.38a4.94,4.94,0,0,0,5.29-5.28V527.84a4.94,4.94,0,0,0-5.29-5.28Z" transform="translate(0 -175)"/><path id="Path-4" data-name="Path" d="M504.5,522.56h-3.25a4.93,4.93,0,0,0-5.28,5.28v61.65a4.93,4.93,0,0,0,5.28,5.28h3.46a4.93,4.93,0,0,0,5.28-5.28V527.84a5.23,5.23,0,0,0-5.49-5.28Z" transform="translate(0 -175)"/><path id="Path-5" data-name="Path" d="M637.19,522.56H588.44a4.93,4.93,0,0,0-5.28,5.28v1.39a4.9,4.9,0,0,0,5.28,5.28h17.32v55a4.89,4.89,0,0,0,5.28,5.28h3.21a4.89,4.89,0,0,0,5.28-5.28v-55h17.32a4.93,4.93,0,0,0,5.28-5.28v-1.39a4.95,4.95,0,0,0-4.94-5.28Z" transform="translate(0 -175)"/><path id="Path-6" data-name="Path" d="M767.6,524.85a4.33,4.33,0,0,0-4.33-2.07h-4.33a6.3,6.3,0,0,0-5.76,3.24l-17,27.15-16.79-26.93a6,6,0,0,0-5.76-3.2h-4.33a5,5,0,0,0-4.33,2.07,4.34,4.34,0,0,0,.69,4.81l23.73,35.67v24.12a4.92,4.92,0,0,0,5.28,5.32h3.2a4.92,4.92,0,0,0,5.28-5.32V565.59l23.47-35.67C768.55,527.15,768,525.63,767.6,524.85Z" transform="translate(0 -175)"/><path id="Path-7" data-name="Path" class="cls-1" d="M609.35,327.74a74.76,74.76,0,0,0-75.67-73.82c-11,0-30.57,5.5-60.27,31.52a397,397,0,0,0-39.53,41c16.32,17.32,33.82,35.41,41.83,42.3a228.17,228.17,0,0,0,50.61,31.73,33.83,33.83,0,0,0,7.36,1C575.33,401.34,609.35,368.22,609.35,327.74Z" transform="translate(0 -175)"/><path id="Path-8" data-name="Path" class="cls-1" d="M474.8,369.77c24.63,21.39,41.17,28.53,51.52,30.83a33.21,33.21,0,0,0,7.36.95c41.86-.26,75.67-33.38,75.67-73.86a74.77,74.77,0,0,0-75.67-73.82c-11,0-30.57,5.5-60.27,31.52a395.42,395.42,0,0,0-39.53,41.09,423.84,423.84,0,0,0,40.92,43.29Z" transform="translate(0 -175)"/><path id="Path-9" data-name="Path" class="cls-2" d="M533.68,205.26c-29,0-60.62,15-94.08,44.16A384.18,384.18,0,0,0,400,290h0s16.32,17.7,34.29,36.58a370.31,370.31,0,0,1,39.31-41.17c29.65-26,49.22-31.52,60.26-31.52a74.77,74.77,0,0,1,75.68,73.82c0,40.48-34.07,73.6-75.68,73.86a33.83,33.83,0,0,1-7.36-1,97.09,97.09,0,0,0,37.71,9c76.59,0,91.53-49.87,92.48-53.55a117.72,117.72,0,0,0,3.42-28.53C659.79,260.11,603.16,205.26,533.68,205.26Z" transform="translate(0 -175)"/><path id="Path-10" data-name="Path" class="cls-1" d="M191,327.74a74.81,74.81,0,0,0,75.68,73.86c11,0,30.61-5.55,60.26-31.52a396.7,396.7,0,0,0,39.57-41.18c-16.32-17.31-33.81-35.45-41.86-42.34A227.07,227.07,0,0,0,274,254.83a32.59,32.59,0,0,0-7.36-.91C224.77,254.35,191,287.51,191,327.74Z" transform="translate(0 -175)"/><path id="Path-11" data-name="Path" class="cls-1" d="M325.3,285.87c-24.63-21.39-41.17-28.53-51.52-30.83a33.77,33.77,0,0,0-7.36-.91,73.86,73.86,0,1,0,0,147.68c11,0,30.57-5.54,60.27-31.52a400.76,400.76,0,0,0,39.57-41.17,4.37,4.37,0,0,0,.69-.91,416.24,416.24,0,0,0-41.65-42.34Z" transform="translate(0 -175)"/><path id="Path-12" data-name="Path" class="cls-3" d="M266.64,450.56c29,0,60.61-14.94,94.08-44.16a382.22,382.22,0,0,0,39.78-40.7h0s-16.32-17.7-34.24-36.58a376.32,376.32,0,0,1-39.57,41.17c-29.7,26-49.23,31.52-60.27,31.52A74.76,74.76,0,0,1,190.74,328c0-40.48,34-73.6,75.68-73.82a33.77,33.77,0,0,1,7.36.91,97.69,97.69,0,0,0-37.75-9c-76.33,0-91.31,49.7-92.22,53.38A116.94,116.94,0,0,0,140.35,328C140.26,395.36,196.93,450.56,266.64,450.56Z" transform="translate(0 -175)"/><path id="Path-13" data-name="Path" class="cls-4" d="M563.81,408.48c-39-.91-79.79-31.74-88.1-39.57-21.39-19.79-71-73.6-74.73-77.93-36.37-40.48-85.59-86-134.21-86h0c-59.58.48-109.71,40.48-122.83,94.34.91-3.46,20.48-54.29,92.48-52.69,39,.91,80.05,32.21,88.32,40,21.39,19.78,71.09,73.6,74.77,77.93,36.32,40.48,85.33,86,134.21,86h0a126.28,126.28,0,0,0,122.61-94.08C655.46,359.73,635.59,410.3,563.81,408.48Z" transform="translate(0 -175)"/></g><rect class="cls-1" width="800" height="450"/></svg>